# xmcd
#
# Track frame offsets:
#	150
#	15561
#	35846
#	54944
#	77671
#	92205
#	106001
#	130614
#	145053
#	160156
#	188323
#	222338
#
# Disc length: 3172 seconds
#
# Revision: 0
# Processed by: cddbd v1.5.1PL0 Copyright (c) Steve Scherf et al.
# Submitted via: EasyCDDAExtractor 8.0.1.1
#
DISCID=8f0c620c
DTITLE=Roosevelt Dean - Somewhere 'round Georgia
DYEAR=2003
DGENRE=Blues
TTITLE0=Blind Willy's
TTITLE1=Lover's Plea
TTITLE2=Somewhere 'round Georgia
TTITLE3=Lou's Place
TTITLE4=Milkman Blues
TTITLE5=Send Me Some Lovin'
TTITLE6=Crazy
TTITLE7=Don't Tell Me What I Need
TTITLE8=Dirty Old Man
TTITLE9=Hear Some Roosevelt Dean
TTITLE10=Bad Feeling Down In Georgia
TTITLE11=Magic Power
EXTD=
EXTT0=
EXTT1=
EXTT2=
EXTT3=
EXTT4=
EXTT5=
EXTT6=
EXTT7=
EXTT8=
EXTT9=
EXTT10=
EXTT11=
PLAYORDER=
